<svg xmlns="http://www.w3.org/2000/svg" viewBox="0 0 32 32">
  <!-- Stripes -->
  <rect width="32" height="32" fill="#B22234"/>
  <rect y="2.46" width="32" height="2.46" fill="white"/>
  <rect y="7.38" width="32" height="2.46" fill="white"/>
  <rect y="12.31" width="32" height="2.46" fill="white"/>
  <rect y="17.23" width="32" height="2.46" fill="white"/>
  <rect y="22.15" width="32" height="2.46" fill="white"/>
  <rect y="27.08" width="32" height="2.46" fill="white"/>
  <!-- Canton -->
  <rect width="14" height="17.23" fill="#3C3B6E"/>
  <!-- Stars (simplified 3x3 grid for favicon clarity) -->
  <g fill="white">
    <circle cx="2.8" cy="2.5" r="1"/>
    <circle cx="7" cy="2.5" r="1"/>
    <circle cx="11.2" cy="2.5" r="1"/>
    <circle cx="4.9" cy="5.2" r="1"/>
    <circle cx="9.1" cy="5.2" r="1"/>
    <circle cx="2.8" cy="7.9" r="1"/>
    <circle cx="7" cy="7.9" r="1"/>
    <circle cx="11.2" cy="7.9" r="1"/>
    <circle cx="4.9" cy="10.6" r="1"/>
    <circle cx="9.1" cy="10.6" r="1"/>
    <circle cx="2.8" cy="13.3" r="1"/>
    <circle cx="7" cy="13.3" r="1"/>
    <circle cx="11.2" cy="13.3" r="1"/>
  </g>
</svg>
